<?xml version="1.0" encoding="UTF-8" standalone="no"?>
<svg
   xmlns:dc="http://purl.org/dc/elements/1.1/"
   xmlns:cc="http://creativecommons.org/ns#"
   xmlns:rdf="http://www.w3.org/1999/02/22-rdf-syntax-ns#"
   xmlns:svg="http://www.w3.org/2000/svg"
   xmlns="http://www.w3.org/2000/svg"
   viewBox="0 0 1587.4 392.92932"
   height="392.92932"
   width="1587.4"
   xml:space="preserve"
   id="svg2"
   version="1.1"><metadata
     id="metadata8"><rdf:RDF><cc:Work
         rdf:about=""><dc:format>image/svg+xml</dc:format><dc:type
           rdf:resource="http://purl.org/dc/dcmitype/StillImage" /></cc:Work></rdf:RDF></metadata><defs
     id="defs6"><linearGradient
       id="linearGradient46"
       spreadMethod="pad"
       gradientTransform="matrix(1150.5396,-16.50563,-16.50563,-1150.5396,35.461086,146.58797)"
       gradientUnits="userSpaceOnUse"
       y2="0"
       x2="1"
       y1="0"
       x1="0"><stop
         id="stop24"
         offset="0"
         style="stop-opacity:1;stop-color:#e95093" /><stop
         id="stop26"
         offset="0.05763022"
         style="stop-opacity:1;stop-color:#ae4492" /><stop
         id="stop28"
         offset="0.203154"
         style="stop-opacity:1;stop-color:#ae4492" /><stop
         id="stop30"
         offset="0.44775523"
         style="stop-opacity:1;stop-color:#57509d" /><stop
         id="stop32"
         offset="0.498872"
         style="stop-opacity:1;stop-color:#57509d" /><stop
         id="stop34"
         offset="0.53850506"
         style="stop-opacity:1;stop-color:#57509d" /><stop
         id="stop36"
         offset="0.773312"
         style="stop-opacity:1;stop-color:#ae4492" /><stop
         id="stop38"
         offset="0.878986"
         style="stop-opacity:1;stop-color:#ae4492" /><stop
         id="stop40"
         offset="0.999463"
         style="stop-opacity:1;stop-color:#ea5195" /><stop
         id="stop42"
         offset="0.99974495"
         style="stop-opacity:1;stop-color:#ea5195" /><stop
         id="stop44"
         offset="1"
         style="stop-opacity:1;stop-color:#ea5195" /></linearGradient><linearGradient
       id="linearGradient82"
       spreadMethod="pad"
       gradientTransform="matrix(8.015e-4,-1.15e-5,-1.15e-5,-8.015e-4,1170.5729,140.62978)"
       gradientUnits="userSpaceOnUse"
       y2="0"
       x2="1"
       y1="0"
       x1="0"><stop
         id="stop62"
         offset="0"
         style="stop-opacity:1;stop-color:#e95093" /><stop
         id="stop64"
         offset="0.10666604"
         style="stop-opacity:1;stop-color:#ae4492" /><stop
         id="stop66"
         offset="0.203154"
         style="stop-opacity:1;stop-color:#ae4492" /><stop
         id="stop68"
         offset="0.47818502"
         style="stop-opacity:1;stop-color:#57509d" /><stop
         id="stop70"
         offset="0.535661"
         style="stop-opacity:1;stop-color:#57509d" /><stop
         id="stop72"
         offset="0.57092741"
         style="stop-opacity:1;stop-color:#57509d" /><stop
         id="stop74"
         offset="0.779864"
         style="stop-opacity:1;stop-color:#ae4492" /><stop
         id="stop76"
         offset="0.999463"
         style="stop-opacity:1;stop-color:#ea5195" /><stop
         id="stop78"
         offset="0.99974495"
         style="stop-opacity:1;stop-color:#ea5195" /><stop
         id="stop80"
         offset="1"
         style="stop-opacity:1;stop-color:#ea5195" /></linearGradient><clipPath
       id="clipPath92"
       clipPathUnits="userSpaceOnUse"><path
         id="path90"
         d="M 0,294.697 H 1190.55 V 0 H 0 Z" /></clipPath><clipPath
       id="clipPath100"
       clipPathUnits="userSpaceOnUse"><path
         id="path98"
         d="M 282.296,122.268 H 324.54 V 108.729 H 282.296 Z" /></clipPath><clipPath
       id="clipPath116"
       clipPathUnits="userSpaceOnUse"><path
         id="path114"
         d="m 231.466,142.926 h 38.931 v -22.334 h -38.931 z" /></clipPath><clipPath
       id="clipPath132"
       clipPathUnits="userSpaceOnUse"><path
         id="path130"
         d="m 120.539,196.534 h 42.062 v -12.712 h -42.062 z" /></clipPath><clipPath
       id="clipPath148"
       clipPathUnits="userSpaceOnUse"><path
         id="path146"
         d="M 778.195,181.024 H 902.578 V 154.906 H 778.195 Z" /></clipPath><clipPath
       id="clipPath164"
       clipPathUnits="userSpaceOnUse"><path
         id="path162"
         d="m 918.997,200.89 h 72.384 v -29.139 h -72.384 z" /></clipPath><clipPath
       id="clipPath180"
       clipPathUnits="userSpaceOnUse"><path
         id="path178"
         d="m 1044.49,160.033 h 35.27 V 148.85 h -35.27 z" /></clipPath><clipPath
       id="clipPath196"
       clipPathUnits="userSpaceOnUse"><path
         id="path194"
         d="m 518.906,133.888 h 38.864 v -15.58 h -38.864 z" /></clipPath><clipPath
       id="clipPath212"
       clipPathUnits="userSpaceOnUse"><path
         id="path210"
         d="m 646.492,120.612 h 23.253 V 106.27 h -23.253 z" /></clipPath><clipPath
       id="clipPath228"
       clipPathUnits="userSpaceOnUse"><path
         id="path226"
         d="m 373.314,150.173 h 26.758 v -6.932 h -26.758 z" /></clipPath><clipPath
       id="clipPath244"
       clipPathUnits="userSpaceOnUse"><path
         id="path242"
         d="m 1163.44,146.098 h 15.04 v -5.469 h -15.04 z" /></clipPath></defs><g
     transform="matrix(1.3333333,0,0,-1.3333333,0,392.92933)"
     id="g10"><g
       id="g12"><g
         id="g14"><g
           id="g20"><g
             id="g22"><path
               id="path48"
               style="fill:url(#linearGradient46);stroke:none"
               d="M 0,199.109 V 73.512 c 0,0 38.355,14.522 72.11,42.782 v 0 c 22.463,18.806 44.578,49.259 68.197,67.527 v 0 c 32.101,-27.213 65.978,-45.931 99.736,-56.227 v 0 c 7.683,-12.455 15.993,-21.505 26.894,-21.505 v 0 c 6.555,0 11.408,0.979 15.36,2.64 v 0 c 0.769,0.323 1.503,0.674 2.21,1.047 v 0 c 5.615,2.563 21.316,9.196 40.033,12.492 v 0 c -0.09,-0.015 -0.18,-0.028 -0.27,-0.043 v 0 c 0.091,0.015 0.18,0.029 0.271,0.045 v 0 c 0,0 35.163,5.71 62.766,20.971 v 0 c 10e-4,0 0.002,0 0.003,-0.001 v 0 c 4.042,2.305 8.297,4.633 12.742,6.924 v 0 c -12.518,-5.784 -25.145,-5.646 -26.599,-5.609 v 0 c -14.297,0.661 -31.07,-0.541 -45.049,-5.103 v 0 c -17.545,-5.725 -25.439,-13.447 -32.056,-20.022 v 0 c -0.069,-0.004 -13.097,-0.886 -27.873,1.472 v 0 l -0.24,0.041 c -28.844,4.893 -35.036,19.213 -36.769,21.983 v 0 c -13.68,25.984 -27.748,56.183 -54.17,56.183 v 0 c -5.081,0 -10.065,-0.956 -14.969,-2.673 v 0 c 0.08,0.028 0.159,0.059 0.24,0.087 v 0 c -0.711,-0.245 -12.539,-4.267 -22.709,-4.844 v 0 c -3.801,-0.216 -8.823,1.082 -12.774,2.38 v 0 c -3.676,1.208 -6.425,2.416 -6.402,2.404 v 0 c -12.959,6.483 -30.604,12.302 -51.543,12.302 v 0 C 33.808,208.765 0,199.109 0,199.109 m 828.111,-18.085 c 0,0 -55.051,18.601 -92.908,15.401 v 0 c -37.131,-3.137 -48.663,-51.174 -65.459,-75.813 v 0 c 25.407,14.406 65.65,33.971 108.46,42.036 v 0 c 0.376,0.054 25.033,3.553 37.435,3.553 v 0 c 34.883,0 86.939,-11.296 86.939,-11.296 v 0 l -0.006,0.003 c 5.075,-1.247 9.571,-1.977 13.272,-1.977 v 0 c 20.211,0 34.53,9.141 47.547,18.82 v 0 c 14.262,-13.389 20.88,-23.307 41.771,-23.307 v 0 c 17.169,0 27.004,4.468 39.265,6.718 v 0 l 0.062,0.011 c 0.687,0.127 7.478,1.355 13.511,1.251 v 0 c 9.489,-0.162 18.243,-5.252 21.756,-7.573 v 0 c -10e-4,0 -10e-4,0 -10e-4,0 v 0 c 13.581,-9.618 28.103,-16.935 43.996,-16.935 v 0 c 20.537,0 35.984,4.121 46.822,8.713 v 0 0.001 c 11.98,-9.644 19.885,-18.324 19.977,-18.424 v 0 30.726 c -0.065,-0.067 -3.948,-4.031 -12.097,-8.497 v 0 c -7.195,-3.507 -13.906,0.881 -14.89,1.573 v 0 c -14.343,10.46 -32.59,20.409 -50.107,20.409 v 0 c -19.731,0 -35.134,-3.21 -48.185,-6.384 v 0 c -20.128,16.516 -38.446,32.546 -56.356,34.18 v 0 c -5.41,0.492 -11.606,-1.276 -17.651,-4.01 v 0 c 0.04,0.018 0.078,0.035 0.117,0.053 v 0 c -2.141,-0.849 -9.284,-3.134 -25.368,-3.277 v 0 c -22.002,0 -33.076,8.194 -47.016,13.911 v 0 c 0.016,-0.007 0.032,-0.014 0.047,-0.022 v 0 c -0.084,0.036 -0.167,0.074 -0.252,0.11 v 0 c 0,0 -14.279,7.064 -38.768,7.064 v 0 c -25.165,0 -30.514,-12.953 -51.913,-27.018 m 350.368,-36.577 c 0,0 0,0 0,0 m -9.183,-2.798 c 10e-4,-0.001 0,-0.002 0,-0.004 v 0 c -10e-4,0.002 0,0.003 0,0.004 m 0.199,-0.158 c 0.019,-0.015 0.037,-0.029 0.055,-0.044 v 0 c -0.019,0.015 -0.036,0.029 -0.055,0.044 m 0.169,-0.134 c 0.061,-0.048 0.122,-0.097 0.183,-0.146 v 0 c -0.061,0.049 -0.122,0.097 -0.183,0.146 m 0.202,-0.161 c 0.117,-0.093 0.234,-0.187 0.351,-0.281 v 0 c -0.116,0.094 -0.234,0.188 -0.351,0.281 m 0.445,-0.356 c 0.028,-0.022 0.056,-0.045 0.084,-0.067 v 0 c -0.028,0.022 -0.056,0.045 -0.084,0.067 m -1007.74,55.684 c 0.01,0.004 0.018,0.006 0.023,0.008 v 0 c -0.008,-0.003 -0.015,-0.005 -0.023,-0.008 m -0.004,-0.001 c 0.002,0 0.003,0.001 0.004,0.001 v 0 c -0.001,0 -0.002,-0.001 -0.004,-0.001 m 0,0 c 0,0 0,0 0,0 v 0 c 0,0 0,0 0,0 m 237.485,-46.359 c 0.007,0.003 0.013,0.006 0.02,0.009 v 0 c -4.45,-2.293 -8.711,-4.625 -12.759,-6.932 v 0 l -0.003,-0.001 c 18.518,-2.333 72.049,-22.678 106.161,-22.678 v 0 c 7.926,0 16.428,1.446 25.437,3.938 v 0 h -10e-4 c 6.14,1.549 28.115,6.015 38.862,-6.191 v 0 c 0,0 0,0 0,0 v 0 c 19.864,-23.899 41.872,-40.995 84.579,-14.692 v 0 c 0,0 1.446,1.024 4.144,2.808 v 0 c -5.283,0.664 -11.306,3.479 -18.354,9.074 v 0 c -47.465,37.676 -82.741,18.39 -82.742,18.389 v 0 0.001 c -15.938,20.26 -33.008,39.962 -60.917,39.962 v 0 c -30.783,0 -60.357,-11.28 -84.427,-23.687 m 246.44,-43.739 c 9.662,-1.213 16.841,4.782 23.252,14.187 v 0 c -10.672,-6.051 -18.725,-11.192 -23.252,-14.187" /></g></g></g></g><g
       id="g50"><g
         id="g52"><g
           id="g58"><g
             id="g60"><path
               id="path84"
               style="fill:url(#linearGradient82);stroke:none"
               d="M 1170.573,140.63 Z" /></g></g></g></g><g
       id="g86"><g
         clip-path="url(#clipPath92)"
         id="g88"><g
           id="g94"><g
             id="g96" /><g
             id="g108"><g
               id="g106"
               clip-path="url(#clipPath100)"><g
                 id="g104"
                 transform="translate(296.3501,119.4311)"><path
                   id="path102"
                   style="fill:#9d9b9a;fill-opacity:1;fill-rule:nonzero;stroke:none"
                   d="m 0,0 c -4.423,-4.395 -8.274,-8.275 -14.053,-10.702 l -10e-4,0.002 c 0,0 18.744,9.399 42.244,13.537 C 13.193,0.414 0,0 0,0" /></g></g></g></g><g
           id="g110"><g
             id="g112" /><g
             id="g124"><g
               id="g122"
               clip-path="url(#clipPath116)"><g
                 id="g120"
                 transform="translate(231.4658,142.9262)"><path
                   id="path118"
                   style="fill:#9d9b9a;fill-opacity:1;fill-rule:nonzero;stroke:none"
                   d="m 0,0 c 2.84,-5.395 5.664,-10.608 8.577,-15.332 10.146,-3.095 20.281,-5.428 30.355,-7.002 l -1.988,0.319 C 7.949,-17.149 1.736,-2.775 0,0" /></g></g></g></g><g
           id="g126"><g
             id="g128" /><g
             id="g140"><g
               id="g138"
               clip-path="url(#clipPath132)"><g
                 id="g136"
                 transform="translate(120.5386,196.5346)"><path
                   id="path134"
                   style="fill:#9d9b9a;fill-opacity:1;fill-rule:nonzero;stroke:none"
                   d="M 0,0 C 12.358,-6.12 19.769,-12.713 19.769,-12.713 27.04,-7.089 34.453,-2.62 42.063,0 42.063,0 29.809,-4.261 19.319,-4.855 11.98,-5.271 0,0 0,0" /></g></g></g></g><g
           id="g142"><g
             id="g144" /><g
             id="g156"><g
               id="g154"
               clip-path="url(#clipPath148)"><g
                 id="g152"
                 transform="translate(833.8809,179.1059)"><path
                   id="path150"
                   style="fill:#9d9b9a;fill-opacity:1;fill-rule:nonzero;stroke:none"
                   d="m 0,0 c -1.965,0.658 -3.893,1.3 -5.771,1.918 -10.927,-7.053 -25.898,-13.814 -49.916,-18.377 0,0 24.949,3.555 37.446,3.555 34.882,0 86.938,-11.296 86.938,-11.296 l -0.006,0.002 C 50.085,-19.627 23.686,-8.095 0,0" /></g></g></g></g><g
           id="g158"><g
             id="g160" /><g
             id="g172"><g
               id="g170"
               clip-path="url(#clipPath164)"><g
                 id="g168"
                 transform="translate(966.0137,186.978)"><path
                   id="path166"
                   style="fill:#9d9b9a;fill-opacity:1;fill-rule:nonzero;stroke:none"
                   d="m 0,0 c -22.003,0 -33.076,8.195 -47.017,13.912 0.017,-0.008 0.033,-0.015 0.049,-0.022 28.721,-12.414 44.345,-29.117 44.345,-29.117 0,0 13.55,12.031 27.99,18.505 C 23.227,2.429 16.083,0.144 0,0" /></g></g></g></g><g
           id="g174"><g
             id="g176" /><g
             id="g188"><g
               id="g186"
               clip-path="url(#clipPath180)"><g
                 id="g184"
                 transform="translate(1067.5215,158.1987)"><path
                   id="path182"
                   style="fill:#9d9b9a;fill-opacity:1;fill-rule:nonzero;stroke:none"
                   d="m 0,0 c -0.724,0.581 -1.442,1.166 -2.149,1.751 -0.035,0.027 -0.069,0.055 -0.102,0.083 0,0 -14.342,-3.667 -20.782,-4.859 0.688,0.127 7.478,1.354 13.512,1.251 9.49,-0.163 18.245,-5.253 21.755,-7.575 C 8.072,-6.4 3.998,-3.236 0,0" /></g></g></g></g><g
           id="g190"><g
             id="g192" /><g
             id="g204"><g
               id="g202"
               clip-path="url(#clipPath196)"><g
                 id="g200"
                 transform="translate(545.3965,133.8882)"><path
                   id="path198"
                   style="fill:#9d9b9a;fill-opacity:1;fill-rule:nonzero;stroke:none"
                   d="m 0,0 v 0 c -9.239,-3.83 -18.085,-7.064 -26.49,-9.389 6.14,1.55 28.116,6.015 38.863,-6.191 C 8.212,-10.573 4.144,-5.268 0,0" /></g></g></g></g><g
           id="g206"><g
             id="g208" /><g
             id="g220"><g
               id="g218"
               clip-path="url(#clipPath212)"><g
                 id="g216"
                 transform="translate(669.7441,120.6118)"><path
                   id="path214"
                   style="fill:#9d9b9a;fill-opacity:1;fill-rule:nonzero;stroke:none"
                   d="M 0,0 C -10.672,-6.051 -18.726,-11.191 -23.253,-14.187 -13.59,-15.4 -6.411,-9.405 0,0" /></g></g></g></g><g
           id="g222"><g
             id="g224" /><g
             id="g236"><g
               id="g234"
               clip-path="url(#clipPath228)"><g
                 id="g232"
                 transform="translate(387.3096,143.2407)"><path
                   id="path230"
                   style="fill:#9d9b9a;fill-opacity:1;fill-rule:nonzero;stroke:none"
                   d="M 0,0 0.004,0.001 C 4.051,2.308 8.313,4.64 12.762,6.933 -0.552,0.773 -13.996,1.318 -13.996,1.318 l 0.011,-0.003 C -8.942,1.087 -4.201,0.628 0,0" /></g></g></g></g><g
           id="g238"><g
             id="g240" /><g
             id="g252"><g
               id="g250"
               clip-path="url(#clipPath244)"><g
                 id="g248"
                 transform="translate(1163.4395,146.0971)"><path
                   id="path246"
                   style="fill:#9d9b9a;fill-opacity:1;fill-rule:nonzero;stroke:none"
                   d="m 0,0 0.007,-0.007 c 2.501,-1.82 4.887,-3.657 7.127,-5.461 h 0.002 c 2.979,1.263 5.61,2.561 7.903,3.819 C 7.239,-5.472 0,0 0,0" /></g></g></g></g></g></g></g></svg>