<svg height="479pt" viewBox="0 0 479.9763 479" width="479pt" xmlns="http://www.w3.org/2000/svg"><path d="m367.914062 152.355469h-256c-13.253906 0-24 10.746093-24 24v192c0 13.253906 10.746094 24 24 24h88v40h-40c-13.253906 0-24 10.746093-24 24 0 13.253906 10.746094 24 24 24h160c13.253907 0 24-10.746094 24-24 0-13.253907-10.746093-24-24-24h-40v-40h88c13.253907 0 24-10.746094 24-24v-192c0-13.253907-10.746093-24-24-24zm-40 304c0 4.417969-3.582031 8-8 8h-160c-4.417968 0-8-3.582031-8-8s3.582032-8 8-8h160c4.417969 0 8 3.582031 8 8zm-64-24h-48v-40h48zm112-64c0 4.417969-3.582031 8-8 8h-256c-4.417968 0-8-3.582031-8-8v-192c0-4.417969 3.582032-8 8-8h256c4.417969 0 8 3.582031 8 8zm0 0"/><path d="m359.914062 176.355469h-240c-4.417968 0-8 3.582031-8 8v176c0 4.417969 3.582032 8 8 8h240c4.417969 0 8-3.582031 8-8v-176c0-4.417969-3.582031-8-8-8zm-8 176h-224v-160h224zm0 0"/><path d="m382.746094 128.578125c.777344-5.371094 1.167968-10.792969 1.167968-16.222656-.0625-53.273438-37.644531-99.128907-89.867187-109.660157-52.222656-10.527343-104.632813 17.1875-125.332031 66.277344-25.5625-17.488281-59.4375-16.683594-84.140625 1.992188-24.707031 18.671875-34.71875 51.042968-24.867188 80.40625-36.355469 14.871094-59.996093 50.371094-59.70312475 89.648437.29296875 39.277344 24.46093775 74.421875 61.03124975 88.75 4.117188 1.605469 8.753906-.433593 10.359375-4.550781s-.433593-8.757812-4.550781-10.359375c-31.734375-12.425781-52.125-43.574219-50.824219-77.625s24.011719-63.550781 56.597657-73.519531c2.234374-.6875 4.058593-2.3125 4.988281-4.457032.933593-2.140624.882812-4.585937-.140625-6.6875-3.667969-7.542968-5.566406-15.824218-5.550782-24.214843.015626-22.472657 13.453126-42.761719 34.140626-51.546875 20.6875-8.78125 44.617187-4.355469 60.796874 11.242187 2.011719 1.933594 4.882813 2.679688 7.578126 1.96875 2.699218-.710937 4.832031-2.777343 5.628906-5.449219 15.03125-49.664062 66.808594-78.394531 116.902344-64.871093 50.097656 13.523437 80.378906 64.40625 68.378906 114.886719-.59375 2.496093.046875 5.121093 1.71875 7.066406 1.65625 1.953125 4.160156 2.980468 6.710937 2.75.722657-.046875 1.386719-.046875 2.144531-.046875 41.453126-.039063 77.308594 28.855469 86.085938 69.367187 8.773438 40.511719-11.910156 81.65625-49.660156 98.777344-2.667969 1.140625-4.507813 3.636719-4.808594 6.523438-.300781 2.882812.980469 5.707031 3.355469 7.375 2.371093 1.667968 5.460937 1.921874 8.074219.660156 43.433593-19.714844 67.886718-66.445313 59.324218-113.367188-8.558594-46.921875-47.941406-82.007812-95.539062-85.113281zm0 0"/><path d="m167.914062 344.355469h144c2.839844-.003907 5.46875-1.511719 6.902344-3.964844 1.433594-2.449219 1.457032-5.480469.066406-7.957031l-72-128c-1.535156-2.355469-4.15625-3.777344-6.96875-3.777344s-5.433593 1.421875-6.96875 3.777344l-72 128c-1.390624 2.476562-1.367187 5.507812.066407 7.957031 1.433593 2.453125 4.0625 3.960937 6.902343 3.964844zm72-119.679688 58.320313 103.679688h-116.640625zm0 0"/><path d="m239.914062 240.355469c-4.417968 0-8 3.582031-8 8v40c0 4.417969 3.582032 8 8 8 4.417969 0 8-3.582031 8-8v-40c0-4.417969-3.582031-8-8-8zm0 0"/><path d="m234.234375 306.675781c-.722656.765625-1.292969 1.660157-1.679687 2.640625-.851563 1.933594-.851563 4.140625 0 6.078125.386718.980469.957031 1.875 1.679687 2.640625l1.191406.960938c.449219.300781.9375.542968 1.449219.71875.453125.230468.9375.394531 1.4375.480468.53125.09375 1.066406.144532 1.601562.160157 3.609376-.019531 6.761719-2.457031 7.6875-5.949219.925782-3.488281-.601562-7.167969-3.726562-8.976562-3.128906-1.808594-7.078125-1.296876-9.640625 1.246093zm0 0"/></svg>